<svg xmlns="http://www.w3.org/2000/svg" xmlns:xlink="http://www.w3.org/1999/xlink" width="500" zoomAndPan="magnify" viewBox="0 0 375 374.999991" height="500" preserveAspectRatio="xMidYMid meet" version="1.0"><defs><g/><clipPath id="0a041b5c9a"><path d="M 107.566406 72.925781 L 267.316406 72.925781 L 267.316406 302.0625 L 107.566406 302.0625 Z M 107.566406 72.925781 " clip-rule="nonzero"/></clipPath><clipPath id="b272042308"><path d="M 267.429688 93.710938 L 267.429688 302.0625 L 187.5 260.5 L 107.566406 302.0625 L 107.566406 93.710938 C 107.566406 82.519531 117.160156 72.925781 128.351562 72.925781 L 246.648438 72.925781 C 257.839844 72.925781 267.429688 81.988281 267.429688 94.242188 Z M 267.429688 93.710938 " clip-rule="nonzero"/></clipPath><clipPath id="394bbddc28"><rect x="0" width="128" y="0" height="223"/></clipPath></defs><g clip-path="url(#0a041b5c9a)"><g clip-path="url(#b272042308)"><path stroke-linecap="butt" transform="matrix(0.75, 0, 0, 0.75, 107.567993, 72.927658)" fill="none" stroke-linejoin="miter" d="M 213.148954 27.711043 L 213.148954 305.513163 L 106.576024 250.096489 L -0.00211518 305.513163 L -0.00211518 27.711043 C -0.00211518 12.789167 12.789553 -0.00250182 27.71143 -0.00250182 L 185.440617 -0.00250182 C 200.362494 -0.00250182 213.148954 12.080833 213.148954 28.419377 Z M 213.148954 27.711043 " stroke="#bbbbbc" stroke-width="36" stroke-opacity="1" stroke-miterlimit="4"/></g></g><g transform="matrix(1, 0, 0, 1, 124, 43)"><g clip-path="url(#394bbddc28)"><g fill="#bbbbbc" fill-opacity="1"><g transform="translate(0.308732, 179.198376)"><g><path d="M 12.265625 -72.890625 L 53.9375 -72.890625 L 53.9375 -116.34375 L 72.21875 -116.34375 L 72.21875 -72.890625 L 114.125 -72.890625 L 114.125 -55.28125 L 72.21875 -55.28125 L 72.21875 -11.375 L 53.9375 -11.375 L 53.9375 -55.28125 L 12.265625 -55.28125 Z M 12.265625 -72.890625 "/></g></g></g></g></g></svg>