<svg xmlns="http://www.w3.org/2000/svg" xmlns:xlink="http://www.w3.org/1999/xlink" width="500" zoomAndPan="magnify" viewBox="0 0 375 374.999991" height="500" preserveAspectRatio="xMidYMid meet" version="1.0"><defs><clipPath id="1afea5cb0a"><path d="M 107.566406 72.925781 L 267.316406 72.925781 L 267.316406 302.0625 L 107.566406 302.0625 Z M 107.566406 72.925781 " clip-rule="nonzero"/></clipPath><clipPath id="fb1e845d63"><path d="M 267.429688 93.710938 L 267.429688 302.0625 L 187.5 260.5 L 107.566406 302.0625 L 107.566406 93.710938 C 107.566406 82.519531 117.160156 72.925781 128.351562 72.925781 L 246.648438 72.925781 C 257.839844 72.925781 267.429688 81.988281 267.429688 94.242188 Z M 267.429688 93.710938 " clip-rule="nonzero"/></clipPath></defs><g clip-path="url(#1afea5cb0a)"><g clip-path="url(#fb1e845d63)"><path stroke-linecap="butt" transform="matrix(0.75, 0, 0, 0.75, 107.567993, 72.927667)" fill="none" stroke-linejoin="miter" d="M 213.148954 27.711031 L 213.148954 305.51315 L 106.576024 250.096476 L -0.00211518 305.51315 L -0.00211518 27.711031 C -0.00211518 12.789154 12.789553 -0.00251462 27.71143 -0.00251462 L 185.440617 -0.00251462 C 200.362494 -0.00251462 213.148954 12.08082 213.148954 28.419364 Z M 213.148954 27.711031 " stroke="#bbbbbc" stroke-width="36" stroke-opacity="1" stroke-miterlimit="4"/></g></g></svg>