<svg xmlns="http://www.w3.org/2000/svg" xmlns:xlink="http://www.w3.org/1999/xlink" width="500" zoomAndPan="magnify" viewBox="0 0 375 374.999991" height="500" preserveAspectRatio="xMidYMid meet" version="1.0"><defs><clipPath id="0e021069d6"><path d="M 107.566406 72.925781 L 267.433594 72.925781 L 267.433594 302.113281 L 107.566406 302.113281 Z M 107.566406 72.925781 " clip-rule="nonzero"/></clipPath><clipPath id="a32eb3da09"><path d="M 267.433594 93.710938 L 267.433594 302.070312 L 187.5 260.507812 L 107.566406 302.070312 L 107.566406 93.710938 C 107.566406 82.519531 117.15625 72.925781 128.347656 72.925781 L 246.652344 72.925781 C 257.84375 72.925781 267.433594 81.988281 267.433594 94.242188 Z M 267.433594 93.710938 " clip-rule="nonzero"/></clipPath><clipPath id="d08f9943ca"><path d="M 0.566406 0.925781 L 160.433594 0.925781 L 160.433594 230.113281 L 0.566406 230.113281 Z M 0.566406 0.925781 " clip-rule="nonzero"/></clipPath><clipPath id="d59ec4fe5f"><path d="M 160.433594 21.710938 L 160.433594 230.070312 L 80.5 188.507812 L 0.566406 230.070312 L 0.566406 21.710938 C 0.566406 10.519531 10.15625 0.925781 21.347656 0.925781 L 139.652344 0.925781 C 150.84375 0.925781 160.433594 9.988281 160.433594 22.242188 Z M 160.433594 21.710938 " clip-rule="nonzero"/></clipPath><clipPath id="3a96bcb932"><rect x="0" width="161" y="0" height="231"/></clipPath><clipPath id="8dd04d9297"><path d="M 107.566406 72.925781 L 267.316406 72.925781 L 267.316406 302.0625 L 107.566406 302.0625 Z M 107.566406 72.925781 " clip-rule="nonzero"/></clipPath><clipPath id="6344f046ad"><path d="M 267.429688 93.710938 L 267.429688 302.0625 L 187.5 260.5 L 107.566406 302.0625 L 107.566406 93.710938 C 107.566406 82.519531 117.160156 72.925781 128.351562 72.925781 L 246.648438 72.925781 C 257.839844 72.925781 267.429688 81.988281 267.429688 94.242188 Z M 267.429688 93.710938 " clip-rule="nonzero"/></clipPath></defs><g clip-path="url(#0e021069d6)"><g clip-path="url(#a32eb3da09)"><g transform="matrix(1, 0, 0, 1, 107, 72)"><g clip-path="url(#3a96bcb932)"><g clip-path="url(#d08f9943ca)"><g clip-path="url(#d59ec4fe5f)"><path fill="#ffffff" d="M 0.566406 0.925781 L 160.433594 0.925781 L 160.433594 230.113281 L 0.566406 230.113281 Z M 0.566406 0.925781 " fill-opacity="1" fill-rule="nonzero"/></g></g></g></g></g></g><g clip-path="url(#8dd04d9297)"><g clip-path="url(#6344f046ad)"><path stroke-linecap="butt" transform="matrix(0.75, 0, 0, 0.75, 107.567993, 72.92765)" fill="none" stroke-linejoin="miter" d="M 213.148954 27.711053 L 213.148954 305.513172 L 106.576024 250.096499 L -0.00211518 305.513172 L -0.00211518 27.711053 C -0.00211518 12.789176 12.789553 -0.00249222 27.71143 -0.00249222 L 185.440617 -0.00249222 C 200.362494 -0.00249222 213.148954 12.080843 213.148954 28.419386 Z M 213.148954 27.711053 " stroke="#ffffff" stroke-width="24" stroke-opacity="1" stroke-miterlimit="4"/></g></g></svg>