<svg xmlns="http://www.w3.org/2000/svg" xmlns:xlink="http://www.w3.org/1999/xlink" width="500" zoomAndPan="magnify" viewBox="0 0 375 374.999991" height="500" preserveAspectRatio="xMidYMid meet" version="1.0"><defs><clipPath id="087a5b32a3"><path d="M 16.003906 16.003906 L 358.753906 16.003906 L 358.753906 358.753906 L 16.003906 358.753906 Z M 16.003906 16.003906 " clip-rule="nonzero"/></clipPath></defs><g clip-path="url(#087a5b32a3)"><path fill="#adb58f" d="M 187.496094 16.003906 C 184.691406 16.003906 181.882812 16.074219 179.082031 16.210938 C 176.277344 16.347656 173.480469 16.554688 170.6875 16.828125 C 167.894531 17.105469 165.109375 17.449219 162.332031 17.859375 C 159.558594 18.273438 156.792969 18.75 154.039062 19.300781 C 151.285156 19.847656 148.550781 20.460938 145.828125 21.144531 C 143.105469 21.824219 140.398438 22.574219 137.714844 23.386719 C 135.027344 24.203125 132.363281 25.082031 129.722656 26.027344 C 127.078125 26.972656 124.460938 27.984375 121.867188 29.058594 C 119.277344 30.132812 116.710938 31.269531 114.171875 32.46875 C 111.636719 33.667969 109.128906 34.929688 106.65625 36.253906 C 104.179688 37.578125 101.738281 38.960938 99.332031 40.402344 C 96.925781 41.84375 94.554688 43.347656 92.21875 44.90625 C 89.886719 46.464844 87.59375 48.082031 85.339844 49.753906 C 83.085938 51.425781 80.871094 53.148438 78.703125 54.929688 C 76.53125 56.710938 74.410156 58.542969 72.328125 60.429688 C 70.25 62.3125 68.21875 64.25 66.234375 66.234375 C 64.25 68.21875 62.3125 70.25 60.429688 72.328125 C 58.542969 74.410156 56.710938 76.53125 54.929688 78.703125 C 53.148438 80.871094 51.425781 83.085938 49.753906 85.339844 C 48.082031 87.59375 46.464844 89.886719 44.90625 92.21875 C 43.347656 94.554688 41.84375 96.925781 40.402344 99.332031 C 38.960938 101.738281 37.578125 104.179688 36.253906 106.65625 C 34.929688 109.128906 33.667969 111.636719 32.46875 114.171875 C 31.269531 116.710938 30.132812 119.277344 29.058594 121.867188 C 27.984375 124.460938 26.972656 127.078125 26.027344 129.722656 C 25.082031 132.363281 24.203125 135.027344 23.386719 137.714844 C 22.574219 140.398438 21.824219 143.105469 21.144531 145.828125 C 20.460938 148.550781 19.847656 151.285156 19.300781 154.039062 C 18.75 156.792969 18.273438 159.558594 17.859375 162.332031 C 17.449219 165.109375 17.105469 167.894531 16.828125 170.6875 C 16.554688 173.480469 16.347656 176.277344 16.210938 179.082031 C 16.074219 181.882812 16.003906 184.691406 16.003906 187.496094 C 16.003906 190.300781 16.074219 193.109375 16.210938 195.910156 C 16.347656 198.714844 16.554688 201.511719 16.828125 204.304688 C 17.105469 207.097656 17.449219 209.882812 17.859375 212.660156 C 18.273438 215.433594 18.75 218.199219 19.300781 220.953125 C 19.847656 223.707031 20.460938 226.441406 21.144531 229.164062 C 21.824219 231.886719 22.574219 234.59375 23.386719 237.277344 C 24.203125 239.964844 25.082031 242.628906 26.027344 245.269531 C 26.972656 247.914062 27.984375 250.53125 29.058594 253.125 C 30.132812 255.714844 31.269531 258.28125 32.46875 260.820312 C 33.667969 263.355469 34.929688 265.863281 36.253906 268.335938 C 37.578125 270.8125 38.960938 273.253906 40.402344 275.660156 C 41.84375 278.066406 43.347656 280.4375 44.90625 282.773438 C 46.464844 285.105469 48.082031 287.398438 49.753906 289.652344 C 51.425781 291.90625 53.148438 294.121094 54.929688 296.289062 C 56.710938 298.460938 58.542969 300.582031 60.429688 302.664062 C 62.3125 304.742188 64.25 306.773438 66.234375 308.757812 C 68.21875 310.742188 70.25 312.679688 72.328125 314.5625 C 74.410156 316.449219 76.53125 318.28125 78.703125 320.0625 C 80.871094 321.839844 83.085938 323.566406 85.339844 325.238281 C 87.59375 326.910156 89.886719 328.527344 92.21875 330.085938 C 94.554688 331.644531 96.925781 333.148438 99.332031 334.589844 C 101.738281 336.03125 104.179688 337.414062 106.65625 338.738281 C 109.128906 340.0625 111.636719 341.324219 114.171875 342.523438 C 116.710938 343.722656 119.277344 344.859375 121.867188 345.933594 C 124.460938 347.007812 127.078125 348.019531 129.722656 348.964844 C 132.363281 349.910156 135.027344 350.789062 137.714844 351.605469 C 140.398438 352.417969 143.105469 353.167969 145.828125 353.847656 C 148.550781 354.53125 151.285156 355.144531 154.039062 355.691406 C 156.792969 356.242188 159.558594 356.71875 162.332031 357.132812 C 165.109375 357.542969 167.894531 357.886719 170.6875 358.164062 C 173.480469 358.4375 176.277344 358.644531 179.082031 358.78125 C 181.882812 358.917969 184.691406 358.988281 187.496094 358.988281 C 190.300781 358.988281 193.109375 358.917969 195.910156 358.78125 C 198.714844 358.644531 201.511719 358.4375 204.304688 358.164062 C 207.097656 357.886719 209.882812 357.542969 212.660156 357.132812 C 215.433594 356.71875 218.199219 356.242188 220.953125 355.691406 C 223.707031 355.144531 226.441406 354.53125 229.164062 353.847656 C 231.886719 353.167969 234.59375 352.417969 237.277344 351.605469 C 239.964844 350.789062 242.628906 349.910156 245.269531 348.964844 C 247.914062 348.019531 250.53125 347.007812 253.125 345.933594 C 255.714844 344.859375 258.28125 343.722656 260.820312 342.523438 C 263.355469 341.324219 265.863281 340.0625 268.335938 338.738281 C 270.8125 337.414062 273.253906 336.03125 275.660156 334.589844 C 278.066406 333.148438 280.4375 331.644531 282.773438 330.085938 C 285.105469 328.527344 287.398438 326.910156 289.652344 325.238281 C 291.90625 323.566406 294.121094 321.839844 296.289062 320.0625 C 298.460938 318.28125 300.582031 316.449219 302.664062 314.5625 C 304.742188 312.679688 306.773438 310.742188 308.757812 308.757812 C 310.742188 306.773438 312.679688 304.742188 314.5625 302.664062 C 316.449219 300.582031 318.28125 298.460938 320.0625 296.289062 C 321.839844 294.121094 323.566406 291.90625 325.238281 289.652344 C 326.910156 287.398438 328.527344 285.105469 330.085938 282.773438 C 331.644531 280.4375 333.148438 278.066406 334.589844 275.660156 C 336.03125 273.253906 337.414062 270.8125 338.738281 268.335938 C 340.0625 265.863281 341.324219 263.355469 342.523438 260.820312 C 343.722656 258.28125 344.859375 255.714844 345.933594 253.125 C 347.007812 250.53125 348.019531 247.914062 348.964844 245.269531 C 349.910156 242.628906 350.789062 239.964844 351.605469 237.277344 C 352.417969 234.59375 353.167969 231.886719 353.847656 229.164062 C 354.53125 226.441406 355.144531 223.707031 355.691406 220.953125 C 356.242188 218.199219 356.71875 215.433594 357.132812 212.660156 C 357.542969 209.882812 357.886719 207.097656 358.164062 204.304688 C 358.4375 201.511719 358.644531 198.714844 358.78125 195.910156 C 358.917969 193.109375 358.988281 190.300781 358.988281 187.496094 C 358.984375 184.691406 358.914062 181.886719 358.773438 179.082031 C 358.632812 176.28125 358.425781 173.484375 358.148438 170.691406 C 357.871094 167.898438 357.523438 165.117188 357.109375 162.339844 C 356.695312 159.566406 356.214844 156.800781 355.667969 154.050781 C 355.117188 151.300781 354.5 148.5625 353.816406 145.839844 C 353.132812 143.121094 352.382812 140.417969 351.566406 137.734375 C 350.75 135.046875 349.871094 132.386719 348.921875 129.742188 C 347.976562 127.101562 346.964844 124.484375 345.890625 121.894531 C 344.816406 119.300781 343.675781 116.738281 342.476562 114.203125 C 341.277344 111.667969 340.015625 109.160156 338.691406 106.6875 C 337.367188 104.214844 335.984375 101.773438 334.539062 99.367188 C 333.097656 96.960938 331.597656 94.589844 330.035156 92.257812 C 328.476562 89.925781 326.863281 87.632812 325.191406 85.378906 C 323.519531 83.125 321.792969 80.914062 320.011719 78.746094 C 318.230469 76.578125 316.398438 74.453125 314.515625 72.375 C 312.628906 70.296875 310.695312 68.265625 308.710938 66.28125 C 306.726562 64.296875 304.695312 62.363281 302.617188 60.476562 C 300.539062 58.59375 298.414062 56.761719 296.246094 54.980469 C 294.078125 53.199219 291.867188 51.472656 289.613281 49.800781 C 287.359375 48.128906 285.066406 46.515625 282.734375 44.957031 C 280.402344 43.394531 278.03125 41.894531 275.625 40.453125 C 273.21875 39.007812 270.777344 37.625 268.304688 36.300781 C 265.832031 34.976562 263.324219 33.714844 260.789062 32.515625 C 258.253906 31.3125 255.691406 30.175781 253.097656 29.101562 C 250.507812 28.027344 247.890625 27.015625 245.25 26.070312 C 242.605469 25.121094 239.945312 24.242188 237.257812 23.425781 C 234.574219 22.609375 231.871094 21.859375 229.152344 21.175781 C 226.429688 20.492188 223.691406 19.875 220.941406 19.324219 C 218.191406 18.777344 215.425781 18.296875 212.652344 17.882812 C 209.875 17.46875 207.09375 17.121094 204.300781 16.84375 C 201.507812 16.566406 198.710938 16.359375 195.910156 16.21875 C 193.105469 16.078125 190.300781 16.007812 187.496094 16.003906 Z M 272.914062 194.683594 L 142.253906 263.441406 C 141.058594 263.96875 139.804688 264.242188 138.5 264.257812 C 136.972656 264.292969 135.554688 263.910156 134.25 263.117188 C 133.648438 262.75 133.105469 262.3125 132.617188 261.804688 C 132.125 261.296875 131.710938 260.734375 131.367188 260.121094 C 131.023438 259.503906 130.765625 258.855469 130.589844 258.171875 C 130.414062 257.492188 130.328125 256.796875 130.332031 256.09375 L 130.332031 118.898438 C 130.328125 118.195312 130.414062 117.5 130.589844 116.820312 C 130.765625 116.136719 131.023438 115.488281 131.367188 114.871094 C 131.710938 114.257812 132.125 113.695312 132.617188 113.1875 C 133.105469 112.679688 133.648438 112.242188 134.25 111.875 C 134.863281 111.53125 135.507812 111.273438 136.183594 111.09375 C 136.863281 110.917969 137.550781 110.828125 138.253906 110.828125 C 138.953125 110.828125 139.644531 110.917969 140.320312 111.09375 C 141 111.273438 141.644531 111.53125 142.253906 111.875 L 272.914062 180.636719 C 273.585938 180.964844 274.203125 181.382812 274.757812 181.882812 C 275.3125 182.382812 275.789062 182.953125 276.183594 183.589844 C 276.582031 184.222656 276.882812 184.902344 277.085938 185.621094 C 277.292969 186.339844 277.398438 187.074219 277.398438 187.824219 C 277.398438 188.570312 277.292969 189.304688 277.085938 190.023438 C 276.882812 190.746094 276.582031 191.421875 276.183594 192.058594 C 275.789062 192.691406 275.3125 193.261719 274.757812 193.761719 C 274.203125 194.265625 273.585938 194.679688 272.914062 195.007812 Z M 272.914062 194.683594 " fill-opacity="1" fill-rule="nonzero"/></g></svg>